<svg width="254" height="180" viewBox="0 0 254 180" fill="none" xmlns="http://www.w3.org/2000/svg">
    <path
        d="M126.268 169.756C172.152 169.756 209.349 167.135 209.349 163.902C209.349 160.67 172.152 158.049 126.268 158.049C80.3838 158.049 43.1873 160.67 43.1873 163.902C43.1873 167.135 80.3838 169.756 126.268 169.756Z"
        fill="#B6B7BE" />
    <path d="M127.366 103.171H125.17V104.634H127.366V103.171Z" fill="#B6B7BE" />
    <path d="M133.222 103.171H130.294V104.634H133.222V103.171Z" fill="#B6B7BE" />
    <path d="M139.078 103.171H136.15V104.634H139.078V103.171Z" fill="#B6B7BE" />
    <path d="M144.201 103.171H141.273V104.634H144.201V103.171Z" fill="#B6B7BE" />
    <path d="M150.058 103.171H147.13V104.634H150.058V103.171Z" fill="#B6B7BE" />
    <path d="M155.181 103.171H152.985V104.634H155.181V103.171Z" fill="#B6B7BE" />
    <path d="M161.037 103.171H158.109V104.634H161.037V103.171Z" fill="#B6B7BE" />
    <path d="M166.894 103.171H163.966V104.634H166.894V103.171Z" fill="#B6B7BE" />
    <path d="M172.017 103.171H169.089V104.634H172.017V103.171Z" fill="#B6B7BE" />
    <path d="M177.873 103.171H174.945V104.634H177.873V103.171Z" fill="#B6B7BE" />
    <path d="M182.997 103.171H180.801V104.634H182.997V103.171Z" fill="#B6B7BE" />
    <path
        d="M189.585 103.902C189.585 112.829 186.076 121.39 179.83 127.703C173.584 134.015 165.112 137.561 156.279 137.561C147.446 137.561 138.975 134.015 132.729 127.703C126.483 121.39 122.974 112.829 122.974 103.902H189.585Z"
        fill="#B6B7BE" />
    <path
        d="M188.089 104.634L166.894 41.254C171.042 39.8548 175.424 39.2897 179.79 39.591C184.157 39.8923 188.421 41.0541 192.339 43.0099C196.257 44.9657 199.752 47.6773 202.625 50.9894C205.498 54.3015 207.691 58.1493 209.081 62.3126C209.305 62.9835 209.509 63.659 209.689 64.3344C211.871 72.5478 210.852 81.2864 206.839 88.7727C202.827 96.259 196.122 101.931 188.089 104.634Z"
        fill="#B6B7BE" />
    <path
        d="M188.853 109.024C191.279 109.024 193.245 107.223 193.245 105C193.245 102.777 191.279 100.976 188.853 100.976C186.427 100.976 184.461 102.777 184.461 105C184.461 107.223 186.427 109.024 188.853 109.024Z"
        fill="#B6B7BE" />
    <path
        d="M146.116 112.683C145.802 112.683 145.502 112.798 145.28 113.004C145.058 113.21 144.934 113.489 144.934 113.78C144.934 114.072 145.058 114.351 145.28 114.557C145.502 114.762 145.802 114.878 146.116 114.878H166.444C166.757 114.878 167.058 114.762 167.279 114.557C167.501 114.351 167.625 114.072 167.625 113.78C167.625 113.489 167.501 113.21 167.279 113.004C167.058 112.798 166.757 112.683 166.444 112.683H146.116Z"
        fill="#CACACA" />
    <path d="M183.729 164.482L179.594 164.634L164.697 132.721L168.466 130.976L183.729 164.482Z" fill="#B6B7BE" />
    <path d="M128.83 164.482L132.965 164.634L147.862 132.721L144.093 130.976L128.83 164.482Z" fill="#B6B7BE" />
    <path d="M173.481 145.61H139.077V148.537H173.481V145.61Z" fill="#B6B7BE" />
    <path
        d="M167.923 39.5122C167.762 39.5123 167.603 39.5517 167.46 39.6274C167.316 39.7031 167.191 39.8129 167.096 39.948C167 40.0831 166.936 40.2397 166.908 40.4053C166.881 40.571 166.891 40.741 166.938 40.9017L167.807 43.8735C167.887 44.146 168.067 44.3743 168.308 44.5082C168.549 44.6421 168.831 44.6705 169.092 44.5873C169.353 44.5042 169.572 44.3161 169.7 44.0646C169.829 43.813 169.856 43.5185 169.777 43.2457L168.909 40.274C168.844 40.0537 168.713 39.8608 168.536 39.7237C168.359 39.5866 168.144 39.5125 167.923 39.5122Z"
        fill="#CACACA" />
    <path
        d="M121.676 104.634C121.438 104.634 121.21 104.75 121.041 104.956C120.873 105.161 120.778 105.441 120.778 105.732C120.778 106.023 120.873 106.302 121.041 106.508C121.21 106.714 121.438 106.829 121.676 106.829H124.272C124.51 106.829 124.738 106.714 124.907 106.508C125.075 106.302 125.17 106.023 125.17 105.732C125.17 105.441 125.075 105.161 124.907 104.956C124.738 104.75 124.51 104.634 124.272 104.634H121.676Z"
        fill="#CACACA" />
    <path
        d="M145.618 65.4636C143.929 64.5668 141.841 65.5449 141 67.1324C139.976 69.0634 140.825 71.3848 142.018 73.0353C143.259 74.7503 144.942 76.166 145.771 78.1479C146.563 80.0131 146.657 82.0939 146.036 84.0208C145.415 85.9476 144.119 87.5957 142.379 88.6724C141.602 89.1554 142.32 90.3738 143.101 89.8877C144.808 88.8397 146.159 87.3154 146.98 85.5096C147.801 83.7038 148.057 81.6983 147.713 79.7492C147.539 78.7384 147.207 77.7602 146.728 76.8493C146.209 75.9197 145.584 75.0512 144.865 74.2609C143.623 72.8158 142.059 71.2227 141.981 69.2121C141.966 68.9513 141.985 68.6898 142.036 68.4334C142.073 68.2543 142.128 68.0794 142.201 67.9111C142.375 67.5499 142.632 67.2338 142.953 66.9886C143.251 66.7554 143.603 66.5987 143.977 66.5328C144.292 66.487 144.612 66.5381 144.896 66.6789C145.707 67.1095 146.43 65.8948 145.618 65.4636Z"
        fill="#E6E6E6" />
    <path
        d="M166.672 74.0957C165.952 73.8726 165.183 73.8419 164.446 74.007C163.709 74.1721 163.033 74.5267 162.489 75.0331C162.208 75.312 161.999 75.6515 161.881 76.0234C161.763 76.3954 161.738 76.7891 161.809 77.172C161.946 78.0097 162.495 78.7537 163.09 79.3532C164.254 80.5264 165.883 81.2849 166.86 82.6318C167.292 83.2056 167.564 83.8777 167.648 84.5827C167.698 85.2162 167.578 85.8514 167.298 86.4267C166.57 87.8541 165.124 88.825 163.6 89.45C163.243 89.5961 163.165 90.1026 163.343 90.3956C163.442 90.5503 163.599 90.6623 163.782 90.7084C163.964 90.7546 164.158 90.7313 164.323 90.6436C167.129 89.4934 169.725 86.9173 168.951 83.7523C168.544 82.0874 167.296 80.9124 165.953 79.891C165.285 79.4192 164.655 78.9006 164.067 78.3393C163.602 77.8635 163.12 77.2138 163.205 76.5689C163.239 76.3446 163.353 76.1388 163.527 75.9864C163.738 75.8004 163.978 75.6469 164.237 75.5313C164.556 75.3842 164.901 75.2994 165.253 75.2818C165.606 75.2641 165.958 75.3141 166.291 75.4286C166.474 75.4756 166.669 75.4514 166.834 75.3611C166.999 75.2708 167.12 75.1217 167.173 74.9459C167.219 74.7692 167.193 74.5821 167.1 74.4236C167.006 74.2651 166.853 74.1476 166.672 74.0957V74.0957Z"
        fill="#E6E6E6" />
    <path
        d="M156.006 54.715C155.581 54.3624 155.044 54.1618 154.485 54.1465C153.954 54.1561 153.439 54.3179 153.003 54.6114C152.018 55.3052 151.322 56.3176 151.039 57.4659C150.318 60.147 151.259 63.0369 152.566 65.3981C153.227 66.5919 153.997 67.7249 154.662 68.9162C155.304 70.0557 155.796 71.2683 156.128 72.526C156.806 75.1049 156.866 77.7999 156.305 80.405C155.734 82.9979 154.532 85.5654 152.487 87.3544C152.353 87.4843 152.278 87.6604 152.278 87.8441C152.278 88.0278 152.353 88.204 152.487 88.3339C152.621 88.4638 152.803 88.5367 152.992 88.5367C153.181 88.5367 153.363 88.4638 153.497 88.3339C155.311 86.746 156.525 84.5678 157.258 82.3281C158.066 79.7984 158.302 77.1293 157.951 74.5029C157.792 73.195 157.485 71.9081 157.036 70.6654C156.549 69.4135 155.941 68.2092 155.22 67.0687C153.878 64.8674 152.45 62.641 152.255 60.02C152.16 58.731 152.326 57.3875 153.148 56.351C153.103 56.4077 153.184 56.3097 153.184 56.3093C153.234 56.2514 153.286 56.1951 153.339 56.1403C153.441 56.0341 153.551 55.9351 153.667 55.844C153.642 55.8631 153.579 55.904 153.694 55.8266C153.751 55.7882 153.81 55.7513 153.87 55.717C153.919 55.6892 153.969 55.6645 154.019 55.6388C154.048 55.6241 154.078 55.6103 154.109 55.5973C154.039 55.6263 154.043 55.6266 154.121 55.5981C154.177 55.5811 154.453 55.5231 154.3 55.542C154.351 55.536 154.402 55.5328 154.454 55.5322C154.476 55.5319 154.668 55.5414 154.574 55.5314C154.464 55.5198 154.661 55.5504 154.662 55.5507C154.724 55.5653 154.785 55.5839 154.844 55.6064C154.695 55.5488 155.087 55.7628 154.997 55.6945C155.133 55.819 155.314 55.8884 155.501 55.8884C155.689 55.8884 155.869 55.819 156.006 55.6945C156.253 55.4555 156.312 54.9459 156.006 54.715L156.006 54.715Z"
        fill="#E6E6E6" />
    <path d="M102.478 158.857L97.3176 160.244L87.8386 115.839L98.4762 114.878L102.478 158.857Z" fill="#EFEFEF" />
    <path d="M78.2753 159.432L72.8463 160.244L68.075 114.878L79.0548 115.101L78.2753 159.432Z" fill="#EFEFEF" />
    <path
        d="M75.6382 95.0411L76.1236 104.32C76.1414 104.661 76.0874 105.002 75.9651 105.32C75.8427 105.638 75.6551 105.925 75.4147 106.162C75.1744 106.4 74.8871 106.581 74.5722 106.694C74.2574 106.808 73.9224 106.85 73.59 106.819C73.0468 106.769 72.5382 106.524 72.1531 106.129C71.768 105.733 71.5309 105.212 71.4832 104.655L70.6045 94.3968L63.6831 70.3418L63.8928 54.8779L72.0726 55.3075L75.6382 95.0411Z"
        fill="#EFEFEF" />
    <path
        d="M79.6799 118.537C75.5048 117.048 70.6605 116.755 65.147 117.658C65.9289 108.145 66.3818 99.3107 66.0018 92.1951H94.4265L79.6799 118.537Z"
        fill="#D7D7D7" />
    <path
        d="M99.5503 117.686C95.3056 119.921 89.1656 120.991 82.0529 121.463L73.1987 93.3464L94.9124 92.9268L99.5503 117.686Z"
        fill="#D7D7D7" />
    <path
        d="M111.134 164.021L95.587 164.632C93.5955 164.71 93.4905 162.895 93.8664 160.817L95.707 155.238C99.8509 159.548 100.241 159.789 102.018 153.658L107.439 158.204L111.452 158.934C112.014 159.036 112.524 159.347 112.891 159.81C113.258 160.273 113.459 160.859 113.458 161.464C113.457 162.126 113.215 162.763 112.781 163.239C112.348 163.716 111.757 163.996 111.134 164.021Z"
        fill="#D5D5D7" />
    <path
        d="M87.7099 164.021L72.1634 164.632C70.1719 164.71 70.0669 162.895 70.4428 160.817L72.2834 155.238C76.4273 159.548 76.8176 159.789 78.594 153.658L84.0155 158.204L88.0285 158.934C88.5905 159.036 89.1002 159.347 89.4674 159.81C89.8346 160.273 90.0356 160.859 90.0347 161.464C90.0337 162.126 89.791 162.763 89.3576 163.239C88.9242 163.716 88.3336 163.996 87.7099 164.021Z"
        fill="#D5D5D7" />
    <path
        d="M91.1325 32.1952C95.7815 32.1952 99.5503 28.4279 99.5503 23.7806C99.5503 19.1333 95.7815 15.366 91.1325 15.366C86.4834 15.366 82.7146 19.1333 82.7146 23.7806C82.7146 28.4279 86.4834 32.1952 91.1325 32.1952Z"
        fill="#EFEFEF" />
    <path d="M87.0623 38.7806L76.8589 35.8783L83.7352 26.3416L91.4987 29.4514L87.0623 38.7806Z" fill="#EFEFEF" />
    <path
        d="M95.8906 94.5638C85.8545 96.8273 74.7136 95.9293 65.1165 93.2864C67.4147 80.4307 66.3051 66.6221 64.0553 55.3905C62.2943 46.5992 66.9397 39.2222 74.667 35.5909C76.328 34.9934 78.0559 34.6031 79.8119 34.4288C85.2324 33.947 90.0019 38.0241 90.5673 43.4533L95.8906 94.5638Z"
        fill="#CACACA" />
    <path d="M69.5388 60.0001L62.9509 59.1115L64.9473 47.561H69.5388V60.0001Z" fill="#CACACA" />
    <path
        d="M91.0169 25.223L89.7384 24.6621C89.4487 24.5354 89.1345 24.4724 88.8177 24.4775C88.5009 24.4825 88.189 24.5555 87.9036 24.6914C87.6183 24.8273 87.3662 25.0228 87.165 25.2644C86.9638 25.506 86.8182 25.7879 86.7383 26.0905L84.9565 29.2682L80.5188 28.5749L80.6738 21.848C80.8759 20.5768 81.3401 19.3601 82.0378 18.2731C82.7354 17.1862 83.6517 16.2521 84.7298 15.5288C85.8079 14.8054 87.0249 14.3082 88.3056 14.0678C89.5862 13.8275 90.9032 13.8491 92.1751 14.1314L92.2962 14.1585C94.4627 14.6422 97.2752 16.2123 98.7434 17.8605L101.479 20.9313C101.609 21.077 101.695 21.255 101.73 21.4459C101.764 21.6369 101.745 21.8335 101.674 22.0144C101.603 22.1953 101.483 22.3535 101.328 22.472C101.172 22.5904 100.987 22.6644 100.791 22.6861L97.0501 23.0936L91.0169 25.223Z"
        fill="#D5D5D7" />
    <path
        d="M118.893 82.4751L114.071 86.6342C114.001 86.6942 113.91 86.7246 113.818 86.7186C113.725 86.7126 113.639 86.6707 113.578 86.6022C113.517 86.5336 113.486 86.444 113.492 86.353C113.498 86.262 113.54 86.1771 113.61 86.1169L118.431 81.9578L117.509 80.9233L112.687 85.0824C112.617 85.1424 112.526 85.1728 112.434 85.1668C112.341 85.1608 112.255 85.1189 112.194 85.0504C112.133 84.9818 112.102 84.8922 112.108 84.8012C112.114 84.7102 112.156 84.6253 112.226 84.5651L117.047 80.406L116.124 79.3715L111.303 83.5305C111.268 83.5604 111.228 83.5832 111.185 83.5978C111.141 83.6124 111.095 83.6184 111.049 83.6154C111.004 83.6125 110.959 83.6007 110.917 83.5807C110.876 83.5607 110.839 83.533 110.809 83.499C110.779 83.465 110.756 83.4255 110.741 83.3827C110.726 83.3398 110.72 83.2946 110.723 83.2495C110.726 83.2044 110.738 83.1603 110.758 83.1198C110.779 83.0792 110.807 83.0431 110.842 83.0133L115.663 78.8542L114.51 77.561L107.696 83.4385C107.088 83.9634 106.682 84.6777 106.545 85.462C106.408 86.2464 106.55 87.053 106.945 87.7471L86.3745 105.492L88.2199 107.561L108.777 89.8277C109.405 90.3146 110.185 90.5701 110.984 90.5499C111.783 90.5297 112.549 90.2351 113.15 89.7172L120.046 83.7683L118.893 82.4751Z"
        fill="#E6E6E6" />
    <path
        d="M95.4019 95.0411L95.8872 104.32C95.9051 104.661 95.851 105.002 95.7287 105.32C95.6064 105.638 95.4187 105.925 95.1784 106.162C94.9381 106.4 94.6507 106.581 94.3359 106.694C94.021 106.808 93.686 106.85 93.3537 106.819C92.8104 106.769 92.3018 106.524 91.9167 106.129C91.5317 105.733 91.2946 105.212 91.2469 104.655L90.3681 94.3968L83.4468 70.3418L83.6565 54.8779L91.8363 55.3075L95.4019 95.0411Z"
        fill="#EFEFEF" />
    <path
        d="M92.638 57.8049C90.0212 55.3552 86.5671 55.2652 82.7146 56.2984V44.7327C82.7146 43.3481 83.2782 42.0203 84.2814 41.0413C85.2846 40.0622 86.6452 39.5122 88.0639 39.5122C88.7169 39.5122 89.3633 39.6396 89.9651 39.8869C90.5669 40.1343 91.1119 40.4965 91.5682 40.9524C92.0245 41.4082 92.3827 41.9485 92.6219 42.5415C92.8611 43.1344 92.9764 43.7681 92.9611 44.4051L92.638 57.8049Z"
        fill="#CACACA" />
</svg>