
    <svg width="24" height="20" fill="none" xmlns="http://www.w3.org/2000/svg">
    <path d="M5.24997 3.125C5.24997 2.95924 5.17095 2.80027 5.0303 2.68306C4.88965 2.56585 4.69888 2.5 4.49997 2.5C4.30106 2.5 4.11029 2.56585 3.96964 2.68306C3.82899 2.80027 3.74997 2.95924 3.74997 3.125V14.1163L2.03097 12.6825C1.89014 12.5651 1.69913 12.4992 1.49997 12.4992C1.30081 12.4992 1.1098 12.5651 0.968971 12.6825C0.828141 12.7999 0.749023 12.959 0.749023 13.125C0.749023 13.291 0.828141 13.4501 0.968971 13.5675L3.96897 16.0662L3.97947 16.075C4.12028 16.1894 4.30965 16.2528 4.50632 16.2514C4.70299 16.25 4.89103 16.1839 5.02947 16.0675L8.02947 13.5675C8.0992 13.5095 8.15454 13.4406 8.19231 13.3647C8.23009 13.2889 8.24957 13.2076 8.24964 13.1254C8.24971 13.0433 8.23037 12.962 8.19272 12.8861C8.15507 12.8102 8.09985 12.7412 8.03022 12.6831C7.96059 12.625 7.8779 12.5789 7.78688 12.5474C7.69586 12.5159 7.5983 12.4997 7.49975 12.4997C7.40121 12.4996 7.30361 12.5157 7.21254 12.5471C7.12147 12.5785 7.0387 12.6245 6.96897 12.6825L5.24997 14.1163V3.125ZM10.5 4.375C10.5 4.20924 10.579 4.05027 10.7196 3.93306C10.8603 3.81585 11.0511 3.75 11.25 3.75H21.75C21.9489 3.75 22.1396 3.81585 22.2803 3.93306C22.421 4.05027 22.5 4.20924 22.5 4.375C22.5 4.54076 22.421 4.69973 22.2803 4.81694C22.1396 4.93415 21.9489 5 21.75 5H11.25C11.0511 5 10.8603 4.93415 10.7196 4.81694C10.579 4.69973 10.5 4.54076 10.5 4.375ZM11.25 7.5C11.0511 7.5 10.8603 7.56585 10.7196 7.68306C10.579 7.80027 10.5 7.95924 10.5 8.125C10.5 8.29076 10.579 8.44973 10.7196 8.56694C10.8603 8.68415 11.0511 8.75 11.25 8.75H18.75C18.9489 8.75 19.1396 8.68415 19.2803 8.56694C19.421 8.44973 19.5 8.29076 19.5 8.125C19.5 7.95924 19.421 7.80027 19.2803 7.68306C19.1396 7.56585 18.9489 7.5 18.75 7.5H11.25ZM11.25 11.25C11.0511 11.25 10.8603 11.3158 10.7196 11.4331C10.579 11.5503 10.5 11.7092 10.5 11.875C10.5 12.0408 10.579 12.1997 10.7196 12.3169C10.8603 12.4342 11.0511 12.5 11.25 12.5H15.75C15.9489 12.5 16.1396 12.4342 16.2803 12.3169C16.421 12.1997 16.5 12.0408 16.5 11.875C16.5 11.7092 16.421 11.5503 16.2803 11.4331C16.1396 11.3158 15.9489 11.25 15.75 11.25H11.25ZM11.25 15C11.0511 15 10.8603 15.0658 10.7196 15.1831C10.579 15.3003 10.5 15.4592 10.5 15.625C10.5 15.7908 10.579 15.9497 10.7196 16.0669C10.8603 16.1842 11.0511 16.25 11.25 16.25H12.75C12.9489 16.25 13.1396 16.1842 13.2803 16.0669C13.421 15.9497 13.5 15.7908 13.5 15.625C13.5 15.4592 13.421 15.3003 13.2803 15.1831C13.1396 15.0658 12.9489 15 12.75 15H11.25Z" fill="#151515" stroke="#151515" stroke-width="0.6"/>
    </svg>
    